<svg xmlns="http://www.w3.org/2000/svg" viewBox="0 0 24 24">    <path d="M 22 2 L 16.699219 2.8007812 L 18.242188 4.34375 L 15.177734 7.4082031 L 13.568359 5.9003906 L 9.4921875 10.078125 L 8.0078125 8.59375 L 3.3027344 13.203125 L 4.703125 14.630859 L 7.9921875 11.40625 L 9.5078125 12.921875 L 13.630859 8.6992188 L 15.222656 10.191406 L 19.65625 5.7578125 L 21.199219 7.3007812 L 22 2 z M 19 10 L 19 21 L 21 21 L 21 10 L 19 10 z M 15 12 L 15 21 L 17 21 L 17 12 L 15 12 z M 11 14 L 11 21 L 13 21 L 13 14 L 11 14 z M 7 16 L 7 21 L 9 21 L 9 16 L 7 16 z M 3 18 L 3 21 L 5 21 L 5 18 L 3 18 z"></path></svg>